<?xml version="1.0" encoding="UTF-8"?>
<svg id="Capa_2" data-name="Capa 2" xmlns="http://www.w3.org/2000/svg" viewBox="0 0 372.42 523.49">
  <defs>
    <style>
      .cls-1 {
        fill: silver;
      }

      .cls-2 {
        fill: #a3a3a3;
      }
    </style>
  </defs>
  <g id="Capa_1-2" data-name="Capa 1">
    <g>
      <path class="cls-2" d="M282.93,476.45c12.32,3.02,24.8,4.12,37.45,2.36,21.62-3.01,38.67-13.15,50.28-31.96,2.28-3.7,2.38-6.85,.08-10.71-20.13-33.88-40.05-67.89-60.1-101.82-9.26-15.68-18.63-31.29-28.65-46.5-1.17-1.78-2.31-3.64-4.64-4.05-2.49-.44-4.77-.04-6.35,2.16-2.09,2.91-1.12,5.59,.64,8.29,20.72,31.92,39.47,65.03,58.88,97.74,1.37,2.31,1.02,3.72-.66,5.52-4.49,4.83-9.64,8.68-15.8,11.07-16.01,6.24-32.19,5.26-48.45,1.02-2.12-.55-2.47-2.15-2.89-3.9-3.72-15.63-7.46-31.26-11.23-46.89-1.9-7.87-3.81-15.74-5.8-23.59-1.21-4.81-4.08-6.83-7.92-5.79-3.52,.95-4.88,4.08-3.82,8.8,.08,.36,.2,.72,.29,1.08,5.66,23.62,11.26,47.26,17.07,70.85,.78,3.16,.18,4.81-2.75,6.18-19.31,9.02-38.73,10.61-58.39,1.2-1.95-.94-3.97-1.91-6.06-.8-7.25,3.89-15.06,5.78-23.11,7.06-3.31,.53-4.86,3.13-4.54,6.33,.33,3.23,2.4,5.14,5.77,5.25,1.49,.05,3-.02,4.47-.25,5.81-.89,11.48-2.32,16.85-4.76,1.69-.77,3.23-.86,5.01-.13,21.31,8.78,42.37,7.21,63.11-1.91,2.95-1.3,3.79-.75,4.44,2.19,2.58,11.68,5.29,23.33,8.09,34.95,.57,2.37-.1,3.77-2.02,5.01-12.19,7.93-25.77,11.37-40.08,11.4-11.47,.02-22.52-2.55-32.4-8.86-2.19-1.4-4.44-1.58-6.7-.19-12.73,7.85-26.62,10.18-41.29,8.5-14.17-1.62-27.3-6.02-37.9-16-3.35-3.15-6.47-4.01-10.77-2.53-12.08,4.16-24.6,5.24-37.27,4.24-7.75-.61-15.15-2.83-22.17-6.29-2.33-1.15-2.66-2.27-1.33-4.58,6.4-11.14,12.67-22.35,18.85-33.61,1.3-2.38,2.61-2.71,5.08-1.8,12.44,4.58,25.41,5.61,38.31,3.36,9.48-1.65,18.1-2.39,26.2,4.15,2.59,2.09,6.37,2.73,9.66,3.91,1.39,.5,2.89,.81,4.36,.94,3.35,.29,5.56-1.4,6.36-4.56,.79-3.09-.74-5.33-3.42-6.75-1.09-.57-2.34-.83-3.53-1.2-5.86-1.86-11.68-4.02-16.28-8.15-3.92-3.53-7.69-3.91-12.65-2.57-14.04,3.81-28.22,4.47-42.41,.39-3.14-.9-3.6-2.01-1.9-4.88,7.8-13.21,15.39-26.54,23.07-39.82,3-5.18,2.71-8.67-.93-10.74-3.54-2.01-6.68-.44-9.7,4.8-7.1,12.32-14.2,24.63-21.33,36.94-4.07,7.02-4.02,6.94-9.62,.79-1.76-1.93-1.82-3.42-.44-5.55,2.37-3.66,4.43-7.52,6.66-11.27,18.03-30.34,35.25-61.17,54.94-90.5,9.77-14.56,20.59-28.21,34.93-38.69,2.45-1.79,4.92-2.58,7.94-2.55,14.97,.11,29.94,.13,44.91-.01,3.34-.03,6,.81,8.48,3.03,2.69,2.41,5.63,4.53,8.49,6.76,2.71,2.12,5.5,2.19,8.24,.11,3.28-2.49,6.71-4.83,9.68-7.65,2.59-2.46,4.49-2.02,7.1-.11,7.7,5.64,14.45,12.25,20.7,19.41,.49,.56,.93,1.18,1.45,1.71,2.72,2.79,6.02,3.14,8.69,.94,2.69-2.21,3.08-5.53,.62-8.65-6.75-8.57-14.43-16.24-23.42-22.44-2.97-2.04-3.4-4.2-2.97-7.55,1.64-12.63,4.85-24.93,7.47-37.35,1.88-8.9,4.37-17.83,3.82-26.93-1.29-21.29-22.39-35.15-42.8-28.58-6.24,2.01-11.94,5.13-17.1,9.08-2.63,2.01-4.42,2.01-7.16,.05-8.93-6.38-18.37-11.35-29.99-10.69-14.46,.82-27.72,12.75-29.68,27.08-.86,6.31,.23,12.43,1.28,18.54,2.84,16.57,7.68,32.74,9.84,49.45,.38,2.91,0,4.98-2.71,6.62-2.44,1.47-4.61,3.41-6.82,5.24-14.21,11.78-24.79,26.61-34.75,41.89-20.64,31.67-39.17,64.63-58.42,97.14-9.85,16.63-19.55,33.36-29.53,49.91-2.54,4.21-2.49,7.73,.23,11.71,3.18,4.65,6.43,9.22,10.58,13.04,1.68,1.55,1.87,2.9,.73,4.86-2.56,4.42-4.92,8.96-7.38,13.44-2.65,4.83-2.56,6.49,.93,10.82,5.74,7.13,13.31,11.61,21.82,14.53,20.1,6.9,40.41,6.28,60.76,1.28,2.42-.59,4.22-.38,6.17,1.25,3.93,3.29,8.36,5.84,12.96,8.14,9.13,4.57,18.92,6.86,28.89,8.61h22.46c8.42-1.62,16.71-3.66,24.41-7.61,1.18-.61,2.4-.62,3.58-.01,7.7,3.94,15.99,6,24.41,7.63h22.46c.84-.18,1.68-.41,2.54-.54,14.26-2.26,27.54-6.99,39.01-15.99,2.22-1.74,4.14-2.06,6.83-1.39,18.56,4.6,37.19,5.31,55.77,.11,10.66-2.98,20.2-7.89,27.14-16.9,1.4-1.82,2.57-3.75,1.94-6.19-.61-2.36-2.12-3.91-4.51-4.53-2.81-.72-4.9,.53-6.5,2.63-5.6,7.29-13.32,11.08-21.92,13.42-14.11,3.82-28.38,3.83-42.59,1.03-11.93-2.35-8.99-.56-11.76-11.54-.34-1.33-.46-2.72-.89-4.01-1.02-3.09-.41-3.99,3.05-3.14Zm-58.6-240.26c-2.94,3.6-6.75,6.23-10.38,9.05-1.07,.83-2.01,.7-3.01-.12-3.18-2.59-6.59-4.9-9.42-7.91-1.49-1.59-2.48-3.38-2.55-5.64-.06-2.28,.4-4.18,2.71-5.24,2.18-1,3.82-.09,5.41,1.29,4.52,3.92,6.38,3.91,10.8,0,1.58-1.4,3.26-2.33,5.4-1.27,1.95,.97,3.02,2.52,3.05,4.77-.02,1.93-.81,3.6-2.02,5.07Zm-73.36-83.76c6.01-1.19,11.33,.37,16.53,3.03,5.02,2.57,9.49,5.96,13.98,9.33,3.58,2.68,5.84,2.67,9.46-.03,5-3.73,10-7.43,15.66-10.16,6.97-3.36,13.9-3.61,20.78,.12,7.41,4.03,11.07,11.13,10.12,19.66-1.45,13.03-5,25.65-7.51,38.47-.36,1.85-1.24,2.5-3.15,1.85-4.18-1.42-8.35-1.23-12.35,.68-1.38,.65-2.56,.51-3.91-.06-5.67-2.36-11.2-2.08-16.4,1.31-1.57,1.02-3.19,1.24-4.96,1.24-8.73-.02-17.46-.04-26.19,0-4.67,.02-7.57,2.33-7.61,5.93-.05,3.57,2.88,6.24,7.38,6.33,6.61,.13,13.23,.23,19.83-.02,3.47-.13,4.23,1.35,4.25,4.39,.02,2.22-1.21,2.07-2.62,2.07-5.86,0-11.72,0-17.59,0-5.74,0-11.47-.01-17.21,0-1.75,0-3.19-.18-3.42-2.45-1.64-16.29-6.31-31.98-9.36-48-.91-4.77-1.8-9.56-1.86-14.42-.11-9.39,6.91-17.43,16.16-19.27ZM16.85,434.51c5.02-8.47,10-16.97,15.03-25.44,.54-.91,.89-2.08,2.22-2.39,2.48,2.17,5.17,4.07,7.25,6.49,1.39,1.62-.65,3.19-1.44,4.62-5.62,10.14-11.31,20.25-17,30.34-2.1,3.71-2.14,3.69-4.96,.32q-5.49-6.55-1.09-13.94Zm246.42,66.74c-12.27,7.08-25.51,10.47-39.67,10.26-11.84,.25-23.03-2.17-33.25-8.35-2.88-1.74-5.57-1.69-8.41,.07-23.4,14.53-63.12,9.45-82.12-9.06-2.54-2.47-5.33-2.74-8.61-1.76-11.05,3.31-22.38,5.04-33.91,4.57-10.88-.44-21.59-2.02-31.38-7.33-.77-.42-1.53-.85-2.26-1.32-6.42-4.07-6.5-4.37-2.9-11.03,3.85-7.12,3.81-7.01,11.13-3.95,19.32,8.08,39.1,7.78,59,2.66,3.52-.91,5.91-.41,8.8,1.82,13.02,10.04,28.04,14.87,44.34,15.95,14.07,.94,27.57-1.18,40.22-7.7,1.49-.77,2.82-.53,4.27,.14,25.9,11.96,51.27,9.91,76.17-3.03,2.39-1.24,3.62-1.32,3.93,1.68,.1,.98,.4,1.95,.61,2.92q1.94,8.85-5.94,13.44Zm16.08-38.36c-2.42-.71-3.78-1.85-4.35-4.4-2.44-10.94-5.04-21.84-7.61-32.75-.6-2.54-.1-3.15,2.76-2.63,17.47,3.19,34.72,3.11,51.26-4.51,5.48-2.52,10.53-5.78,14.71-10.12,2.25-2.34,3.17-1.66,4.56,.73,5.74,9.93,11.58,19.8,17.49,29.63,1.22,2.02,1.04,3.51-.33,5.39-10.59,14.48-25.17,21.44-42.7,22.88-2.35,.19-4.74,.03-7.1,.03-9.83,.44-19.31-1.49-28.68-4.25Z"/>
      <path class="cls-2" d="M98.35,317.65c-3.73,5.71-7.25,11.58-10.41,17.62-1.98,3.78,1.04,7.96,5.3,8.05,2.18,.14,3.98-.71,5.09-2.52,3.43-5.62,6.87-11.23,10.04-16.99,1.54-2.8,.28-6.21-2.41-7.71-2.94-1.64-5.86-1.11-7.61,1.55Z"/>
    </g>
    <g>
      <path class="cls-1" d="M182.33,72.05c1.07,1.41,2.48,2.09,3.88,2.04,1.4,.04,2.81-.63,3.88-2.04L235.7,11.95c2.07-2.73,2.07-7.16,0-9.9h0c-2.07-2.73-5.44-2.73-7.51,0l-41.98,55.32L144.23,2.05c-2.07-2.73-5.44-2.73-7.51,0h0c-2.07,2.73-2.07,7.16,0,9.9l45.61,60.1Z"/>
      <path class="cls-1" d="M228.19,39.1l-41.98,55.32-41.98-55.32c-2.07-2.73-5.44-2.73-7.51,0s-2.07,7.16,0,9.9l45.61,60.1c1.07,1.41,2.48,2.09,3.88,2.04,1.4,.04,2.81-.63,3.88-2.04l45.61-60.1c2.07-2.73,2.07-7.16,0-9.9s-5.44-2.73-7.51,0Z"/>
    </g>
  </g>
</svg>